<svg width="40" height="40" viewBox="0 0 40 40" fill="none" xmlns="http://www.w3.org/2000/svg">
<g style="mix-blend-mode:hard-light" opacity="0.8">
<rect width="40" height="40" rx="8" fill="#4A4A4A"/>
</g>
<path d="M30 20C30 14.4771 25.5229 10 20 10C14.4771 10 10 14.4771 10 20C10 24.9912 13.6568 29.1283 18.4375 29.8785V22.8906H15.8984V20H18.4375V17.7969C18.4375 15.2906 19.9305 13.9063 22.2146 13.9063C23.3084 13.9063 24.4531 14.1016 24.4531 14.1016V16.5625H23.1922C21.95 16.5625 21.5625 17.3334 21.5625 18.125V20H24.3359L23.8926 22.8906H21.5625V29.8785C26.3432 29.1283 30 24.9912 30 20Z" fill="#007DE8"/>
</svg>
