<svg width="500" height="500" viewBox="0 0 500 500" fill="none" xmlns="http://www.w3.org/2000/svg">
<g id="Illustration/Order Placed">
<rect width="500" height="500" fill="#121212"/>
<path id="Blob" fill-rule="evenodd" clip-rule="evenodd" d="M309.606 103.054C310.389 73.9766 273.589 24.3384 213.301 32.987C147.294 42.4559 99.4005 118.299 108.942 203.068L109.305 206.324C115.162 259.27 117.119 300.977 106.999 359.706C99.4326 403.615 153.238 500.827 272.258 485.449C391.278 470.071 456.653 327.354 400.487 260.014C325.469 170.069 307.892 166.693 309.606 103.054Z" fill="#0089FF"/>
<path id="Path" fill-rule="evenodd" clip-rule="evenodd" d="M238.923 187.828C236.881 182.573 233.013 178.281 229.665 173.746C220.712 161.619 215.161 147.008 213.801 131.996C213.075 123.982 215.831 84.8674 230.409 75.6912C223.212 73.4753 215.831 71.1648 209.928 66.4893C204.025 61.8139 199.847 54.1701 201.436 46.809C203.84 35.6677 218.31 30.8845 229.104 34.5464C239.897 38.2083 247.661 47.4725 254.845 56.3213C261.715 55.7426 263.42 45.6211 269.694 42.7649C273.926 40.8382 278.846 42.8135 282.948 45.0021C294.888 51.371 306.07 60.1045 312.384 72.0735C318.697 84.0425 319.243 99.6664 311.199 110.548C314.129 107.193 320.202 111.365 319.855 115.806C319.507 120.246 315.585 123.469 311.84 125.88C308.095 128.291 303.911 130.791 302.431 134.992C298.706 145.567 292.788 155.364 285.161 163.583C280.501 168.604 275.152 173.121 271.696 179.036C268.239 184.95 267.085 192.899 271.116 198.437C276.477 192.732 285.716 191.127 292.686 194.692C299.657 198.256 303.765 206.686 302.277 214.372C311.99 215.206 320.716 222.9 322.758 232.432C342.451 252.282 358.536 275.701 369.995 301.207C377.269 317.396 382.671 334.352 388.057 351.263C390.164 357.881 392.297 364.813 391.123 371.658C388.739 385.557 373.661 393.746 359.654 395.391C342.216 397.44 324.045 392.353 310.204 381.548C302.811 404.539 295.431 429.651 303.836 452.292C305.636 457.14 302.036 462.647 297.335 464.801C292.633 466.956 287.221 466.641 282.062 466.283C253.144 464.279 224.226 462.275 195.309 460.27C189.249 459.85 180.963 456.285 183.108 450.602C187.898 437.91 189.267 423.946 187.032 410.566C185.328 419.577 182.371 428.351 178.275 436.557C178.275 436.557 163.84 466.283 149.445 451.027C141.241 434.45 140.887 415.038 143.309 396.7C145.73 378.362 150.737 360.418 152.693 342.024C154.599 324.106 153.586 305.974 155.45 288.051C157.314 270.128 162.465 251.774 174.698 238.543C184.377 228.075 194.057 217.606 203.736 207.138C206.342 204.32 209.089 201.405 212.692 200.083C216.296 198.76 221.007 199.601 222.86 202.963C225.145 200.121 227.818 197.057 231.445 196.677C235.072 196.297 238.857 200.74 236.528 203.546C240.701 199.756 240.965 193.082 238.923 187.828Z" fill="#FAFAFA"/>
<path id="Path_2" fill-rule="evenodd" clip-rule="evenodd" d="M316.091 232.432C335.784 252.282 351.869 275.701 363.329 301.207C370.603 317.396 376.005 334.352 381.39 351.263C383.497 357.881 385.63 364.813 384.456 371.658C382.073 385.557 366.994 393.746 352.988 395.391C335.549 397.44 318.497 391.291 304.656 380.486C297.263 403.477 288.765 429.651 297.169 452.292C297.931 454.343 299.917 456.664 299.071 458.648C297.917 461.352 293.38 463.559 290.668 464.801C289.954 465.129 291.861 458.365 291.777 448.438C291.636 431.545 284.553 372.853 301.226 376.73C341.947 386.2 372.649 384.731 373.292 374.629C376.561 323.343 314.049 222.9 316.091 232.432Z" fill="#E55117"/>
<path id="Combined Shape" fill-rule="evenodd" clip-rule="evenodd" d="M234.256 187.828C232.655 183.708 229.932 180.18 227.217 176.663C226.469 175.694 225.721 174.725 224.998 173.746C216.045 161.619 210.494 147.008 209.134 131.996C208.408 123.982 211.164 84.8674 225.742 75.6912C218.545 73.4753 211.164 71.1648 205.261 66.4893C199.358 61.8139 195.18 54.1701 196.769 46.809C199.173 35.6677 213.643 30.8845 224.437 34.5464C235.23 38.2083 242.994 47.4725 250.178 56.3213C253.962 56.0026 256.179 52.7889 258.455 49.4886C260.312 46.7971 262.208 44.0479 265.027 42.7649C269.259 40.8382 274.179 42.8135 278.281 45.0021C290.221 51.371 301.403 60.1045 307.717 72.0735C314.03 84.0425 314.576 99.6664 306.532 110.548C309.463 107.193 315.535 111.365 315.188 115.806C314.841 120.246 310.918 123.469 307.173 125.88C306.974 126.008 306.773 126.137 306.572 126.266C302.99 128.562 299.165 131.015 297.764 134.992C294.039 145.567 288.121 155.364 280.494 163.583C279.254 164.919 277.965 166.219 276.677 167.52L276.676 167.52C273.121 171.107 269.565 174.695 267.029 179.036C263.572 184.95 262.418 192.899 266.449 198.437C271.81 192.732 281.049 191.127 288.019 194.692C294.99 198.256 299.098 206.686 297.61 214.372C307.323 215.206 316.049 222.9 318.091 232.432C337.784 252.282 353.869 275.701 365.328 301.207C372.602 317.396 378.004 334.352 383.39 351.263C385.497 357.881 387.63 364.813 386.456 371.658C384.073 385.557 368.994 393.746 354.987 395.391C337.549 397.44 319.378 392.353 305.537 381.548C298.144 404.539 290.765 429.651 299.169 452.292C299.913 454.296 299.734 456.413 298.936 458.359C293.463 446.467 292.461 432.893 293.925 419.878C295.401 406.757 299.259 394.038 303.099 381.405C303.735 379.311 300.408 378.758 298.239 378.46C294.387 377.933 291.592 374.651 289.183 371.599L279.389 359.192C273.068 351.185 265.779 342.59 255.696 341.039C252.9 340.609 250.07 340.766 247.236 340.922C245.509 341.018 243.781 341.113 242.058 341.076C235.366 340.933 228.733 338.73 223.284 334.843C221.978 333.91 220.652 332.743 220.384 331.16C220.122 329.614 221.518 327.803 223.002 328.196L223.107 328.228C223.072 328.216 223.037 328.206 223.002 328.196C218.281 326.772 213.785 324.603 209.732 321.795C208.985 321.277 208.223 320.703 207.838 319.88C207.007 318.101 208.383 315.922 210.197 315.171C212.011 314.421 214.066 314.694 216.009 314.981C213.691 314.51 211.302 314.009 209.361 312.66C207.419 311.31 206.028 308.874 206.629 306.587C207.23 304.301 210.381 302.885 212.158 304.445C211.383 302.136 213.063 299.579 215.262 298.531C217.461 297.484 220.008 297.567 222.44 297.701C232.643 298.264 242.817 299.352 252.908 300.961L251.43 280.203C251.37 279.356 251.297 278.469 250.838 277.755C250.25 276.841 249.162 276.405 248.143 276.027C227.602 268.418 206.472 262.402 185.003 258.054L189.812 348.155C189.96 350.918 190.73 354.422 193.459 354.872C210.42 357.663 227.058 362.415 242.935 369.001C245.166 369.926 246.796 366.804 247.207 364.424L251.275 340.844C251.841 350.812 250.415 360.889 247.106 370.309C249.636 370.904 251.101 367.561 251.506 364.993L255.18 341.69C255.805 349.951 255.083 358.312 253.05 366.343C252.583 368.187 251.874 370.226 250.15 371.029C248.69 371.708 246.981 371.267 245.435 370.817L191.71 355.149C190.866 354.903 189.984 354.635 189.358 354.017C188.426 353.097 188.299 351.661 188.227 350.354L183.756 269.11C183.466 263.844 183.753 258.565 184.041 253.298L185.515 226.325C176.867 256.787 176.051 289.077 179.694 320.532C183.337 351.988 191.339 382.769 200.106 413.197C196.417 406.887 193.723 399.996 192.153 392.858C187.865 398.996 183.365 405.991 184.589 413.378C186.644 425.784 185.333 438.73 180.835 450.473C179.809 453.15 181.654 456.239 184.179 457.598C186.705 458.956 189.7 459.023 192.568 459.059L230.745 459.533C229.691 458.197 230.071 455.979 231.509 455.069C231.124 459.218 236.446 461.172 240.575 461.733C260.082 464.387 280.818 466.875 298.746 458.795C297.551 461.374 295.279 463.605 292.668 464.801C287.966 466.956 282.554 466.641 277.395 466.283L190.642 460.27C184.582 459.85 176.296 456.285 178.441 450.602C183.231 437.91 184.6 423.946 182.365 410.566C180.661 419.577 177.704 428.351 173.608 436.557C175.288 422.855 179.881 409.518 186.994 397.688C192.057 389.267 189.141 378.552 186.54 369.077C174.228 324.218 172.319 276.537 181.006 230.836C162.466 244.389 154.725 268.438 152.526 291.298C151.607 300.856 151.455 310.48 151.303 320.097C151.091 333.484 150.88 346.858 148.6 360.027C147.558 366.042 146.089 371.988 144.62 377.929C142.3 387.315 139.983 396.69 139.36 406.316C138.387 421.349 141.592 436.304 144.778 451.027C136.574 434.45 136.22 415.038 138.642 396.7C139.753 388.284 141.409 379.951 143.064 371.619C145.016 361.797 146.968 351.976 148.026 342.024C148.986 333 149.206 323.921 149.425 314.843C149.641 305.895 149.858 296.948 150.783 288.051C152.647 270.128 157.798 251.774 170.031 238.543L199.069 207.138C201.675 204.32 204.422 201.405 208.025 200.083C211.629 198.76 216.34 199.601 218.193 202.963C220.478 200.121 223.151 197.057 226.778 196.677C230.405 196.297 234.19 200.74 231.861 203.546C236.034 199.756 236.298 193.082 234.256 187.828ZM298.746 458.795C298.813 458.651 298.876 458.505 298.936 458.359C298.981 458.455 299.026 458.552 299.07 458.648C298.962 458.697 298.854 458.747 298.746 458.795ZM384.473 364.054C385.456 372.241 381.066 380.471 374.554 385.528C368.041 390.585 359.703 392.808 351.476 393.373C334.156 394.562 316.454 388.624 303.354 377.231C313.41 366.924 313.972 348.818 304.573 337.908C312.659 334.146 320.926 330.333 329.79 329.358C338.655 328.384 348.382 330.736 354.145 337.542C355.129 338.705 355.981 339.973 356.833 341.241C357.878 342.798 358.923 344.353 360.211 345.71C359.095 338.33 353.342 332.166 346.455 329.287C339.569 326.407 331.735 326.472 324.449 328.092C317.162 329.712 310.299 332.8 303.495 335.869C302.201 336.453 301.233 334.591 301.023 333.187L299.803 325.055C299.301 321.702 299.354 317.315 302.513 316.084C304.885 315.159 304.263 311.54 302.693 309.536C302.43 309.2 302.148 308.862 301.864 308.521C300.45 306.828 298.966 305.05 299.341 302.963C303.32 280.806 307.322 258.561 314.404 237.192C314.624 236.53 314.89 235.813 315.494 235.463C316.309 234.99 317.34 235.399 318.16 235.863C324.795 239.612 328.76 246.31 332.716 252.994C334.112 255.353 335.508 257.71 337.019 259.935C339.351 263.368 342.022 266.546 344.694 269.726L344.694 269.726C346.678 272.086 348.662 274.447 350.509 276.914C361.889 292.117 367.472 310.404 373.067 328.729C375.619 337.088 378.174 345.455 381.282 353.541C381.408 353.869 381.535 354.197 381.663 354.526C382.866 357.629 384.078 360.757 384.473 364.054ZM295.307 316.205C296.931 316.189 298.631 316.155 300.053 315.37C301.475 314.586 302.48 312.79 301.822 311.305C301.198 309.895 299.398 309.387 297.87 309.587C296.984 309.703 296.138 309.993 295.29 310.282L295.29 310.282L295.289 310.283L295.289 310.283L295.288 310.283L295.287 310.283L295.287 310.283L295.286 310.284L295.285 310.284L295.285 310.284L295.284 310.284L295.284 310.284L295.283 310.285L295.282 310.285L295.282 310.285C294.669 310.495 294.056 310.704 293.426 310.848C290.279 311.568 287.067 310.62 283.873 309.676C280.415 308.655 276.977 307.639 273.664 308.754C275.807 305.207 275.665 300.819 275.531 296.651L275.531 296.645C275.524 296.429 275.517 296.214 275.51 295.999C274.83 273.865 279.741 251.58 289.663 231.782C286.001 234.402 283.372 238.429 282.448 242.836C282.338 243.359 282.251 243.89 282.163 244.421L282.163 244.421C281.938 245.785 281.713 247.149 281.111 248.385C278.671 253.391 271.781 253.762 266.234 253.262C261.688 252.852 256.924 252.255 253.222 249.586C251.364 248.247 249.869 246.45 248.383 244.662L248.382 244.662C246.403 242.283 244.438 239.921 241.653 238.682C237.034 236.627 232.098 238.339 227.104 240.072C222.592 241.637 218.033 243.219 213.617 242.055C211.128 241.399 209.407 244.454 208.661 246.916L205.407 257.645C203.889 251.781 205.743 245.164 210.088 240.943C208.227 239.722 208.728 237.216 209.224 234.736C209.726 232.223 210.224 229.736 208.257 228.635C202.319 225.313 201.144 217.424 200.637 210.638C193.082 213.428 188.771 221.594 187.443 229.538C186.66 234.22 186.669 238.972 186.678 243.729C186.684 247.042 186.69 250.358 186.429 253.654C209.207 258.113 231.659 264.239 253.546 271.966C254.886 272.439 256.293 272.966 257.187 274.07C258.149 275.258 258.328 276.878 258.47 278.4C259.184 286.096 259.859 294.11 257.105 301.332L257.129 278.826C257.13 277.58 256.917 276.02 255.731 275.638C253.886 275.044 253.021 277.863 253.173 279.795L254.491 296.526C254.671 298.816 255.004 301.396 256.847 302.768L223.731 299.441C220.291 299.095 216.168 299.038 214.156 301.85C214.487 304.54 217.703 305.668 220.356 306.222L241.436 310.617C234.84 311.98 227.907 310.757 221.666 308.222C221.192 308.03 220.719 307.829 220.246 307.629C218.27 306.791 216.287 305.95 214.168 305.67C211.543 305.323 208.576 306.039 207.051 308.204C216.483 314.441 227.444 318.347 238.695 319.479C238.627 320.7 236.998 321.066 235.779 320.977C232.605 320.746 229.554 319.815 226.499 318.883L226.499 318.883C225.081 318.451 223.662 318.018 222.231 317.655C217.715 316.51 212.652 316.131 208.644 318.505C217.666 325.864 229.563 328.421 240.97 330.753L222.082 330.351C225.422 336.295 232.917 338.485 239.727 338.845C241.74 338.952 243.772 338.949 245.803 338.947C250.639 338.94 255.472 338.934 260.043 340.405C268.342 343.074 274.353 350.116 279.905 356.838L290.61 369.799C292.07 371.566 294.851 371.762 296.914 370.762C298.976 369.763 300.432 367.837 301.573 365.849C303.839 361.899 305.188 357.261 304.456 352.766C303.724 348.271 300.623 344.023 296.253 342.742C288.746 340.541 283.416 333.869 279.732 326.967C278.468 324.598 277.331 322.154 276.196 319.711C274.024 315.038 271.854 310.37 268.792 306.244C267.874 305.007 266.874 303.815 265.875 302.623L265.875 302.622C263.404 299.675 260.935 296.731 259.712 293.125C266.001 299.21 271.339 306.277 275.472 313.991C275.92 314.827 276.415 315.73 277.28 316.118C277.834 316.367 278.464 316.366 279.072 316.36L295.307 316.205ZM293.577 127.501C295.096 127.303 296.298 126.164 297.385 125.083L302.673 119.823C292.904 144.029 278.955 167.431 257.808 182.733C253.515 185.839 248.411 188.701 243.194 187.768C240.462 187.28 238.01 185.781 235.837 184.054C231.311 180.458 227.73 175.801 224.667 170.898C216.021 157.055 211.22 140.787 211.293 124.466C211.366 108.144 216.358 91.8306 225.699 78.4468C226.02 77.9867 226.38 77.5039 226.91 77.3206C227.448 77.1346 228.038 77.2995 228.582 77.4651C248.161 83.4166 267.553 89.9837 286.719 97.1535C289.753 98.2886 291.016 101.859 291.568 105.052C292.704 111.626 292.401 118.446 290.687 124.894C290.293 126.375 292.057 127.699 293.577 127.501ZM280.802 78.5641C283.111 78.5847 284.721 81.6732 283.416 83.5785C282.111 85.4838 278.649 85.0977 277.796 82.9517C276.839 80.5446 274.37 79.238 272.041 78.0054C271.794 77.8746 271.548 77.7447 271.306 77.6143C263.479 73.3985 257.462 66.704 251.474 60.042L251.474 60.042L251.473 60.0419C249.903 58.2941 248.334 56.5486 246.735 54.8507C243.697 51.6249 240.51 48.5388 237.189 45.6054C233.547 42.3883 229.682 39.3179 225.222 37.3874C220.763 35.4569 215.606 34.7535 211.016 36.3506C213.084 36.4555 214.704 38.8115 214.061 40.7795C213.419 42.7475 210.721 43.6939 208.989 42.5586C207.258 41.4232 207.051 38.5716 208.6 37.1981C203.907 38.5876 199.963 42.2995 198.292 46.9004C197.963 47.8076 197.718 48.8108 198.019 49.7277C198.189 50.2447 198.522 50.7038 198.852 51.1577C199.318 51.7989 199.775 52.4296 199.754 53.1981C199.585 59.3489 205.607 64.918 211.726 64.269C212.924 64.1419 213.407 65.337 213.908 66.5769C214.147 67.1684 214.39 67.7701 214.717 68.2433C215.301 69.0885 216.277 69.5594 217.211 69.9867C226.708 74.3308 236.535 77.9531 246.579 80.8123C247.743 81.1437 249.337 81.2817 249.831 80.1767C250.493 78.694 252.418 77.9242 253.92 78.5412C255.422 79.1582 256.25 81.0588 255.679 82.579C255.423 83.2602 256.263 83.8125 256.947 84.0599L291.164 96.4312C290.532 93.8989 293.749 91.3818 296.056 92.6036C298.362 93.8255 298.086 97.9008 295.636 98.8008L308.142 105.107L310.387 86.7544C310.492 85.897 310.15 84.6221 309.321 84.8674C307.787 85.3218 305.978 84.4541 305.372 82.973C304.766 81.4918 305.449 79.6052 306.862 78.8539C307.949 78.2757 308.354 76.8506 308.114 75.6426C307.873 74.4347 307.129 73.3959 306.387 72.4132C298.355 61.7817 288.182 52.7305 276.513 46.298C273.386 44.574 269.595 43.0205 266.363 44.5396C264.492 45.4189 263.234 47.1494 262.004 48.8413C261.808 49.1105 261.613 49.3787 261.416 49.6424C258.956 52.941 255.911 55.8027 252.467 58.0546L263.369 69.1465C262.467 67.1998 263.84 64.5773 265.953 64.2084C268.067 63.8395 270.246 65.842 270.057 67.9791C269.869 70.1161 267.371 71.7053 265.355 70.9714C269.908 74.6499 274.949 78.5119 280.802 78.5641ZM294.68 228.804C296.337 228.925 298.02 227.93 298.712 226.42C299.403 224.909 299.058 222.986 297.884 221.81C296.417 220.342 298.116 217.599 300.18 217.386C302.245 217.172 304.121 218.491 305.776 219.744L313.753 225.783C314.721 226.516 315.806 227.61 315.383 228.747C306.271 253.248 300.282 278.909 297.606 304.912C297.389 307.02 295.357 308.571 293.272 308.949C291.187 309.327 289.057 308.798 287.004 308.272L279.665 306.394C279.167 306.267 278.644 306.126 278.274 305.77C277.744 305.26 277.662 304.453 277.619 303.719C276.127 278.679 281.278 253.273 292.404 230.791C292.879 229.829 293.611 228.726 294.68 228.804ZM278.515 213.099C276.529 211.6 276.984 207.942 279.277 206.976C273.602 207.467 268.425 209.996 263.243 212.527C258.245 214.969 253.242 217.413 247.784 218.032C251.064 220.258 252.612 224.523 252.167 228.462C251.723 232.401 249.517 235.987 246.65 238.724C249.104 243.425 253.158 247.272 257.981 249.477C259.681 250.254 261.629 250.835 263.399 250.235C263.785 250.105 264.197 249.93 264.616 249.752C266.145 249.104 267.764 248.418 268.531 249.691C269.969 252.079 273.642 251.532 276.024 250.083C277.651 249.093 279.165 247.753 279.835 245.97C280.505 244.187 280.108 241.91 278.542 240.826C277.241 239.926 276.804 237.983 277.593 236.612C278.383 235.241 280.284 234.645 281.715 235.319C282.965 235.907 284.135 234.441 284.881 233.278C286.638 230.542 289.226 228.348 292.213 227.062C291.017 225.304 291.185 222.74 292.6 221.153C288.945 218.481 286.013 214.831 284.193 210.686C283.893 213.155 280.5 214.597 278.515 213.099ZM230.111 203.535C230.066 203.83 230.02 204.125 229.985 204.417C229.82 205.782 229.967 207.369 231.061 208.201C235.234 203.144 237.687 196.692 237.929 190.139C237.977 188.83 239.961 189.02 241.198 189.45C244.85 190.723 248.949 190.088 252.491 188.537C256.033 186.986 259.124 184.584 262.173 182.206C261.28 188.148 262.058 194.331 264.393 199.866L252.338 208.919C251.861 209.277 251.414 210.098 251.96 210.337C256.529 208.855 260.408 205.843 264.206 202.893L264.562 202.616C268.475 199.58 272.571 196.533 277.366 195.291C282.161 194.049 287.867 195.029 290.922 198.928C292.428 200.849 293.149 203.253 293.838 205.595L295.973 212.848C296.436 214.42 296.891 216.153 296.224 217.65C295.558 219.147 293.213 219.885 292.278 218.539L287.907 212.25C285.824 209.254 283.462 206.053 279.946 205.081C276.109 204.02 272.153 205.937 268.586 207.702C262.335 210.796 255.934 213.589 249.415 216.068C247.411 216.83 245.187 216.086 243.012 215.358C240.536 214.53 238.123 213.722 236.165 215.181C235.439 215.723 234.412 215.427 233.575 215.081C227.816 212.701 222.656 208.885 218.695 204.075L226.989 198.688C228.141 197.939 229.744 199.014 230.136 200.332C230.443 201.366 230.276 202.454 230.111 203.535ZM236.208 235.67C232.434 232.585 230.61 227.296 231.68 222.54C231.952 221.331 230.696 220.395 229.681 219.685C228.665 218.975 227.66 217.591 228.443 216.632C228.866 216.115 228.29 215.391 227.762 214.982L217.615 207.115C216.397 206.172 215.142 205.183 214.439 203.812C213.169 201.334 209.778 200.216 207.283 201.453C203.741 203.209 203.247 207.971 203.227 211.925C203.223 212.857 203.485 214.094 204.415 214.147C206.794 214.282 207.919 217.974 206.021 219.413C204.161 220.822 205.488 223.876 207.338 225.298C207.741 225.609 208.173 225.906 208.608 226.205C210.163 227.275 211.747 228.365 212.152 230.143C212.454 231.467 212.008 232.87 211.572 234.24C211.027 235.954 210.498 237.617 211.468 239.01C212.656 240.716 215.19 240.55 217.233 240.167C223.624 238.969 229.959 237.468 236.208 235.67ZM281.304 318.355C285.903 317.984 290.534 317.993 295.132 318.381C295.517 318.414 295.925 318.457 296.234 318.689C296.711 319.047 296.796 319.715 296.85 320.308C297.29 325.181 298.215 330.009 299.608 334.699C299.392 335.274 298.777 335.413 298.138 335.558C297.721 335.653 297.294 335.75 296.96 335.972C295.882 336.688 296.197 338.402 296.997 339.419C297.28 339.778 297.609 340.107 297.936 340.434C298.535 341.033 299.13 341.629 299.441 342.406C289.577 339.316 282.386 330.482 278.545 320.886C278.312 320.304 278.087 319.656 278.299 319.066C278.51 318.477 279.38 318.129 279.779 318.612C279.937 318.803 279.977 319.061 280.011 319.305L280.682 324.1C280.77 324.727 281.796 324.733 282.144 324.205C282.491 323.676 282.363 322.98 282.222 322.363L281.304 318.355ZM249.33 224.019C248.005 220.201 244.435 217.258 240.434 216.686C238.97 216.477 237.319 216.625 236.271 217.669C233.967 219.962 233.056 223.461 233.597 226.667C234.137 229.873 236.02 232.766 238.501 234.867C240.356 236.436 242.971 237.625 245.173 236.597C245.829 236.291 246.389 235.81 246.888 235.286C249.675 232.359 250.655 227.837 249.33 224.019ZM293.295 123.311C294.383 115.739 295.395 107.574 291.82 100.811C291.571 100.34 291.315 99.7206 291.671 99.3251L302.894 104.886C303.784 105.327 304.837 106.18 304.423 107.083C303.94 108.137 303.848 109.302 303.756 110.469C303.718 110.962 303.679 111.455 303.61 111.94C303.197 114.873 301.672 117.56 299.739 119.804C297.806 122.048 295.467 123.901 293.144 125.739C293.064 124.93 293.18 124.116 293.295 123.311ZM304.595 340.777C303.307 338.965 301.586 337.189 299.374 336.968C298.52 336.883 297.372 337.749 297.992 338.342C303.35 343.465 306.939 350.797 306.275 358.18C305.612 365.564 300.042 372.611 292.714 373.736C294.882 376.309 299.017 376.51 301.954 374.868C304.891 373.227 306.78 370.171 307.972 367.024C311.223 358.435 309.915 348.264 304.595 340.777ZM189.58 255.723C197.709 256.996 205.641 259.282 213.547 261.562L235.092 267.775C241.649 269.666 248.28 271.587 254.193 274.994C251.389 274.892 248.661 274.091 245.977 273.27C241.231 271.819 236.501 270.287 231.77 268.755L231.77 268.755C216.423 263.783 201.064 258.809 185.119 256.595C186.137 255.376 188.011 255.477 189.58 255.723ZM307.376 112.567C306.142 113.675 305.553 115.329 305.198 116.949C305.094 117.425 305.006 117.905 304.918 118.385L304.918 118.386C304.706 119.542 304.493 120.697 304.062 121.786C303.991 121.965 303.914 122.145 303.837 122.327C303.448 123.238 303.046 124.18 303.336 125.099C307.99 124.8 312.2 121.051 313.034 116.463C313.314 114.923 313.148 113.115 311.928 112.134C310.636 111.094 308.61 111.458 307.376 112.567ZM283.552 52.3363C284.087 53.8559 283.279 55.7211 281.804 56.3696C280.329 57.0181 278.409 56.3528 277.651 54.9309C276.816 53.3656 277.579 51.1655 279.202 50.4515C280.826 49.7376 282.962 50.6633 283.552 52.3363ZM228.157 53.7705C228.25 52.3888 227.382 50.995 226.102 50.4677C224.472 49.7966 222.377 50.689 221.732 52.3291C221.087 53.9693 222.012 56.0499 223.662 56.6688C225.6 57.3954 228.02 55.8352 228.157 53.7705ZM291.185 67.6889C291.231 69.437 292.835 70.9952 294.583 70.9903C296.438 70.9852 298.091 69.2017 297.955 67.3518C297.827 65.6079 296.152 64.1268 294.406 64.2137C292.659 64.3007 291.139 65.9409 291.185 67.6889ZM241.337 69.7187C240.069 71.3032 237.301 71.3073 236.029 69.7265C234.756 68.1456 235.351 65.4427 237.17 64.5424C238.989 63.6421 241.499 64.808 241.984 66.7785C242.233 67.7879 241.986 68.9071 241.337 69.7187ZM231.054 96.1296C229.981 97.806 229.752 99.9943 230.455 101.857C230.715 102.547 231.103 103.201 231.655 103.692C233.424 105.265 236.448 104.6 237.938 102.76C239.427 100.919 239.632 98.3211 239.193 95.9944C239.017 95.0667 238.695 94.0765 237.903 93.5621C237.352 93.2041 236.659 93.1396 236.004 93.1865C234.018 93.3286 232.127 94.4531 231.054 96.1296ZM266.682 113.287C266.098 112.69 265.712 111.919 265.472 111.118C264.584 108.148 265.835 104.669 268.41 102.943C269.575 102.163 271.077 101.73 272.396 102.207C274.012 102.793 274.9 104.556 275.207 106.248C275.646 108.669 275.118 111.382 273.336 113.078C271.553 114.774 268.403 115.045 266.682 113.287ZM222.047 146.681C222.106 145.185 222.228 143.692 222.411 142.206C222.474 141.692 222.92 141.249 223.435 141.189C223.674 144.853 223.785 148.526 223.768 152.198C222.148 151.01 221.967 148.689 222.047 146.681ZM282.244 130.775C281.757 128.547 280.084 126.615 277.949 125.815C277.592 125.681 277.608 125.11 277.909 124.875C278.209 124.64 278.636 124.663 279.007 124.754C281.037 125.25 282.293 127.242 283.221 129.114C283.467 129.61 283.708 130.187 283.492 130.696C283.276 131.205 282.362 131.315 282.244 130.775ZM245.12 455.409C244.906 454.927 244.364 454.697 243.869 454.516C236.114 451.689 227.88 450.18 219.627 450.072C218.45 450.057 217.076 450.17 216.428 451.153C217.058 451.683 217.963 451.682 218.786 451.669C227.525 451.538 236.287 453.16 244.399 456.412C244.889 456.608 245.333 455.891 245.12 455.409ZM247.919 118.528L247.919 118.528C247.338 118.89 246.757 119.251 246.247 119.704C245.284 120.558 244.588 121.94 245.086 123.127C245.701 124.593 247.676 124.87 249.241 124.588C249.283 124.58 249.325 124.573 249.367 124.565L249.438 124.551C249.933 124.458 250.438 124.363 250.92 124.495C251.465 124.644 251.945 125.219 251.758 125.753C251.627 126.128 251.233 126.337 250.863 126.481C248.571 127.378 245.709 127.044 244.009 125.265C242.308 123.485 242.265 120.227 244.208 118.715L251.798 112.81C251.721 114.616 250.81 116.355 249.415 117.504C248.949 117.888 248.434 118.208 247.92 118.528L247.92 118.528L247.92 118.528L247.92 118.528L247.92 118.528L247.92 118.528L247.92 118.528L247.92 118.528L247.919 118.528L247.919 118.528L247.919 118.528ZM278.482 132.747C278.953 135.413 278.27 138.153 277.302 140.682C273.136 151.57 263.297 160.103 251.929 162.688C247.354 163.729 242.307 163.79 238.236 161.458C234.165 159.126 231.548 153.882 233.333 149.543C235.428 144.451 241.916 143.023 247.421 142.907C247.904 142.897 248.391 142.89 248.882 142.882C253.991 142.807 259.444 142.726 263.142 139.324C264.458 138.113 265.407 136.59 266.358 135.064C267.159 133.778 267.962 132.49 268.987 131.385C271.227 128.969 275.616 127.815 277.584 130.457C278.079 131.12 278.338 131.932 278.482 132.747ZM276.142 136.81C276.71 134.64 276.461 131.518 274.242 131.19C273.416 131.068 272.594 131.438 271.908 131.913C270.204 133.096 269.111 134.878 268.012 136.67L268.012 136.67C267.14 138.092 266.264 139.52 265.075 140.66C261.972 143.636 257.329 144.163 253.044 144.534L244.81 145.247C242.71 145.429 240.534 145.634 238.706 146.684C235.273 148.657 234.082 153.7 236.271 157C238.637 160.568 243.572 161.343 247.834 160.931C260.971 159.66 272.803 149.579 276.142 136.81ZM280.834 303.605C280.387 303.657 279.923 303.53 279.564 303.26C279.32 303.078 279.125 302.831 279.003 302.553C278.607 301.646 279.143 300.454 280.084 300.15C281.025 299.845 282.158 300.496 282.368 301.463C282.578 302.43 281.817 303.492 280.834 303.605ZM296.065 303.728C295.74 303.443 295.306 303.287 294.874 303.3C293.813 303.332 292.96 304.53 293.278 305.543C293.595 306.556 294.979 307.053 295.868 306.474C296.758 305.894 296.863 304.428 296.065 303.728ZM264.046 226.586C262.943 225.317 263.037 223.185 264.248 222.018C265.458 220.851 267.593 220.835 268.821 221.983C270.132 223.21 270.15 225.553 268.857 226.799C267.564 228.046 265.223 227.942 264.046 226.586ZM249.614 237.17C249.361 237.848 249.34 238.61 249.555 239.3C250.167 241.264 252.882 242.199 254.573 241.027C256.264 239.856 256.343 236.986 254.72 235.723C253.096 234.46 250.334 235.243 249.614 237.17ZM220.413 232.174C220.032 233.432 218.828 234.396 217.517 234.491C215.583 234.633 213.776 232.713 214.034 230.791C214.292 228.869 216.54 227.493 218.369 228.139C219.939 228.693 220.895 230.581 220.413 232.174Z" fill="#121212"/>
</g>
</svg>
