<svg width="24" height="24" viewBox="0 0 24 24" fill="none" xmlns="http://www.w3.org/2000/svg">
<rect opacity="0.1" width="24" height="24" rx="4" fill="#121212"/>
<path d="M5.93453 13.957L8.02691 11.9582L7.83227 11.8841H7.81605C7.75117 11.8471 6.56711 11.3844 6.56711 11.3844C3.55019 10.4961 3.50153 5.05492 7.06993 4H17.7589C21.2624 4.37015 22.1545 8.18267 19.2998 11.0883C18.4564 11.9212 17.4994 12.6985 16.8668 13.2907C18.505 13.9385 20.8731 14.2901 20.6947 17.6955C20.5974 19.5092 19.6404 20.7122 18.4564 20.9343L8.04313 20.9528C4.15033 21.508 2.34992 17.0477 5.93453 13.957ZM9.61647 10.4406L14.2392 6.03581H7.08615C4.62071 8.49729 7.55653 10.274 9.61647 10.4406ZM15.2124 14.7713C13.639 16.2149 11.9197 17.7695 10.5572 18.9725L18.3266 18.8614C19.5107 18.6023 19.5431 16.548 18.7159 16.1779C17.5643 15.6782 16.3802 15.234 15.2124 14.7713ZM8.05935 18.8799L18.4726 8.62684C19.6242 7.40536 17.6616 5.18447 16.4613 6.36894L6.25893 16.1038C4.76669 17.9361 6.84285 19.9904 8.05935 18.8799Z" fill="#007DE8"/>
</svg>
