<svg width="40" height="40" viewBox="0 0 40 40" fill="none" xmlns="http://www.w3.org/2000/svg">
<g style="mix-blend-mode:hard-light" opacity="0.8">
<rect width="40" height="40" rx="8" fill="#4A4A4A"/>
</g>
<path d="M16.2918 28.125C23.8371 28.125 27.9652 21.8723 27.9652 16.4516C27.9652 16.2758 27.9613 16.0961 27.9535 15.9203C28.7566 15.3396 29.4496 14.6202 30 13.7961C29.2521 14.1289 28.458 14.3462 27.6449 14.4406C28.5011 13.9275 29.1421 13.1213 29.4492 12.1715C28.6438 12.6488 27.763 12.9855 26.8445 13.1672C26.2257 12.5097 25.4075 12.0743 24.5164 11.9284C23.6253 11.7825 22.711 11.9342 21.9148 12.3601C21.1186 12.786 20.4848 13.4623 20.1115 14.2845C19.7382 15.1066 19.6462 16.0289 19.8496 16.9086C18.2187 16.8268 16.6233 16.4031 15.1667 15.6651C13.71 14.9271 12.4247 13.8912 11.3941 12.6246C10.8703 13.5277 10.71 14.5964 10.9459 15.6134C11.1817 16.6305 11.7959 17.5196 12.6637 18.1C12.0122 18.0793 11.375 17.9039 10.8047 17.5883V17.6391C10.8041 18.5868 11.1317 19.5055 11.7319 20.239C12.3321 20.9725 13.1678 21.4755 14.0969 21.6625C13.4934 21.8276 12.86 21.8517 12.2457 21.7328C12.5079 22.5479 13.018 23.2608 13.7048 23.772C14.3916 24.2832 15.2209 24.5672 16.077 24.5844C14.6237 25.726 12.8285 26.3451 10.9805 26.3422C10.6527 26.3417 10.3253 26.3216 10 26.282C11.8774 27.4865 14.0613 28.1262 16.2918 28.125Z" fill="#007DE8"/>
</svg>
