<svg width="113" height="24" viewBox="0 0 113 24" fill="none" xmlns="http://www.w3.org/2000/svg">
<path d="M43.5751 19.7478H32V16.8801L39.5136 7.75773H32.3808V4.88999H43.3974V7.75773L35.8584 16.8801H43.5751V19.7478ZM49.388 20.0198C48.5249 20.0198 47.738 19.8714 47.0526 19.5995C46.3673 19.3276 45.7835 18.932 45.3265 18.4129C44.8442 17.9184 44.4889 17.3004 44.2604 16.5834C44.0066 15.8665 43.8797 15.0507 43.8797 14.1607C43.8797 13.2707 44.0066 12.4796 44.235 11.7627C44.4635 11.0457 44.8189 10.4277 45.2758 9.90853C45.7327 9.41409 46.2911 9.01854 46.9765 8.72188C47.6365 8.44994 48.398 8.32633 49.261 8.32633C50.2256 8.32633 51.0379 8.47466 51.6979 8.79604C52.3833 9.09271 52.9417 9.51298 53.3732 10.0321C53.8048 10.576 54.1094 11.1693 54.3124 11.8616C54.5155 12.5538 54.5917 13.2707 54.5917 14.0124V14.9518H47.2303V15.1248C47.2303 15.8665 47.4334 16.4351 47.8395 16.8801C48.2457 17.3004 48.9057 17.5229 49.7687 17.5229C50.4287 17.5229 50.9872 17.3745 51.4187 17.1273C51.8248 16.8554 52.231 16.5587 52.5863 16.1879L54.2109 18.1409C53.7032 18.7342 53.0432 19.1792 52.2056 19.5253C51.3933 19.8467 50.4541 20.0198 49.388 20.0198ZM49.3372 10.6502C48.6772 10.6502 48.1695 10.848 47.7888 11.2682C47.408 11.6885 47.2303 12.2324 47.2303 12.9493V13.0977H51.2664V12.9246C51.2664 12.2324 51.0887 11.6885 50.7841 11.2682C50.4795 10.848 49.9972 10.6502 49.3372 10.6502ZM62.7145 17.869H62.613C62.5368 18.1656 62.3845 18.4623 62.2068 18.7095C62.0038 18.9815 61.7753 19.204 61.5215 19.4017C61.2422 19.5995 60.9376 19.7478 60.5823 19.8467C60.2523 19.9456 59.8969 20.0198 59.5415 20.0198C58.0693 20.0198 56.9777 19.5006 56.2416 18.5117C55.4801 17.4981 55.1247 16.0643 55.1247 14.1607C55.1247 12.2571 55.4801 10.7985 56.2416 9.80964C56.9777 8.82077 58.0693 8.32633 59.5415 8.32633C60.2777 8.32633 60.9376 8.5241 61.5215 8.91965C62.0799 9.3152 62.4607 9.80964 62.613 10.4524H62.7145V4H65.9636V19.7478H62.7145V17.869ZM60.6076 17.4487C61.2169 17.4487 61.7245 17.3004 62.1307 17.0037C62.5114 16.7318 62.7145 16.3115 62.7145 15.8171V12.5043C62.7145 12.0099 62.5114 11.5896 62.1307 11.3177C61.7245 11.021 61.2169 10.8727 60.6076 10.8727C59.9984 10.8727 59.4908 11.0705 59.0846 11.4907C58.6785 11.911 58.4754 12.4796 58.4754 13.1965V15.1248C58.4754 15.8418 58.6785 16.4104 59.0846 16.8307C59.4908 17.2509 59.9984 17.4487 60.6076 17.4487ZM74.7972 17.869H74.6957C74.6196 18.1656 74.4673 18.4623 74.2896 18.7095C74.0865 18.9815 73.858 19.204 73.5788 19.4017C73.325 19.5995 73.0204 19.7478 72.665 19.8467C72.335 19.9456 71.9796 20.0198 71.6243 20.0198C70.152 20.0198 69.0605 19.5006 68.299 18.5117C67.5628 17.4981 67.2075 16.0643 67.2075 14.1607C67.2075 12.2571 67.5628 10.7985 68.299 9.80964C69.0605 8.82077 70.152 8.32633 71.6243 8.32633C72.3604 8.32633 73.0204 8.5241 73.5788 8.91965C74.1626 9.3152 74.5434 9.80964 74.6957 10.4524H74.7972V4H78.0464V19.7478H74.7972V17.869ZM72.6904 17.4487C73.2996 17.4487 73.8073 17.3004 74.2134 17.0037C74.5942 16.7318 74.7972 16.3115 74.7972 15.8171V12.5043C74.7972 12.0099 74.5942 11.5896 74.2134 11.3177C73.8073 11.021 73.2996 10.8727 72.6904 10.8727C72.0812 10.8727 71.5735 11.0705 71.1673 11.4907C70.7612 11.911 70.5581 12.4796 70.5581 13.1965V15.1248C70.5581 15.8418 70.7612 16.4104 71.1673 16.8307C71.5735 17.2509 72.0812 17.4487 72.6904 17.4487ZM79.8486 8.57355H83.0724V10.4524H83.1993C83.3516 9.80964 83.707 9.3152 84.2908 8.91965C84.8746 8.5241 85.5346 8.32633 86.2708 8.32633C87.7176 8.32633 88.8345 8.82077 89.5707 9.80964C90.3068 10.7985 90.6876 12.2571 90.6876 14.1607C90.6876 16.0643 90.3068 17.4981 89.5707 18.5117C88.8345 19.5006 87.7176 20.0198 86.2708 20.0198C85.89 20.0198 85.5346 19.9456 85.2046 19.8467C84.8746 19.7478 84.57 19.5995 84.2908 19.4017C84.0116 19.204 83.7831 18.9815 83.6054 18.7095C83.4024 18.4623 83.2755 18.1656 83.1993 17.869H83.0724V24H79.8486V8.57355ZM85.2046 17.4487C85.8139 17.4487 86.3215 17.2509 86.7277 16.8307C87.1084 16.4104 87.3115 15.8418 87.3115 15.1248V13.1965C87.3115 12.4796 87.1084 11.911 86.7277 11.4907C86.3215 11.0705 85.8139 10.8727 85.2046 10.8727C84.5954 10.8727 84.0877 11.021 83.6816 11.3177C83.2755 11.5896 83.0724 12.0099 83.0724 12.5043V15.8171C83.0724 16.3115 83.2755 16.7318 83.6816 17.0037C84.0877 17.3004 84.5954 17.4487 85.2046 17.4487ZM100.41 19.7478C99.8258 19.7478 99.3435 19.5748 98.9627 19.2287C98.5566 18.8578 98.3281 18.3881 98.2266 17.7948H98.0997C97.922 18.5117 97.5158 19.0556 96.932 19.4512C96.3228 19.822 95.5866 20.0198 94.7236 20.0198C93.5813 20.0198 92.6929 19.6984 92.0837 19.1051C91.4745 18.5117 91.1698 17.7454 91.1698 16.7565C91.1698 15.5946 91.6014 14.7046 92.4898 14.136C93.3529 13.5674 94.5713 13.2707 96.0689 13.2707H97.8966V12.5785C97.8966 12.0346 97.7443 11.6143 97.4651 11.293C97.1604 10.9716 96.6782 10.7985 95.9928 10.7985C95.3582 10.7985 94.8505 10.9468 94.4698 11.2188C94.089 11.4907 93.759 11.7874 93.5306 12.1335L91.6014 10.4524C92.0583 9.78492 92.6421 9.26576 93.3529 8.89493C94.0636 8.49938 95.0282 8.32633 96.2212 8.32633C97.8712 8.32633 99.0896 8.67244 99.9019 9.36465C100.714 10.0569 101.12 11.0705 101.12 12.4054V17.3004H102.212V19.7478H100.41ZM95.9166 17.8195C96.4751 17.8195 96.932 17.6959 97.3128 17.4734C97.6935 17.2509 97.8966 16.8801 97.8966 16.3857V15.0754H96.3228C95.0536 15.0754 94.419 15.471 94.419 16.3115V16.6329C94.419 17.0284 94.5459 17.3498 94.7997 17.5229C95.079 17.7206 95.4343 17.8195 95.9166 17.8195ZM109.979 8.57355H113L108.583 21.4784C108.279 22.3436 107.872 22.9864 107.339 23.382C106.806 23.8022 106.045 24 105.055 24H103.05V21.5525H105.207L105.588 20.3164L101.577 8.57355H104.801L106.476 13.7899L107.314 17.0284H107.441L108.279 13.7899L109.979 8.57355Z" fill="#FAFAFA"/>
<rect opacity="0.1" width="24" height="24" rx="4" fill="#121212"/>
<path d="M5.93453 13.957L8.02691 11.9582L7.83227 11.8841H7.81605C7.75117 11.8471 6.56711 11.3844 6.56711 11.3844C3.55019 10.4961 3.50153 5.05492 7.06993 4H17.7589C21.2624 4.37015 22.1545 8.18267 19.2998 11.0883C18.4564 11.9212 17.4994 12.6985 16.8668 13.2907C18.505 13.9385 20.8731 14.2901 20.6947 17.6955C20.5974 19.5092 19.6404 20.7122 18.4564 20.9343L8.04313 20.9528C4.15033 21.508 2.34992 17.0477 5.93453 13.957ZM9.61647 10.4406L14.2392 6.03581H7.08615C4.62071 8.49729 7.55653 10.274 9.61647 10.4406ZM15.2124 14.7713C13.639 16.2149 11.9197 17.7695 10.5572 18.9725L18.3266 18.8614C19.5107 18.6023 19.5431 16.548 18.7159 16.1779C17.5643 15.6782 16.3802 15.234 15.2124 14.7713ZM8.05935 18.8799L18.4726 8.62684C19.6242 7.40536 17.6616 5.18447 16.4613 6.36894L6.25893 16.1038C4.76669 17.9361 6.84285 19.9904 8.05935 18.8799Z" fill="#007DE8"/>
</svg>
