<svg width="180" height="42" viewBox="0 0 180 42" fill="none" xmlns="http://www.w3.org/2000/svg">
<path d="M57.8482 26.5162H66.3228V30.5634H52.4042V26.8053L60.8227 14.3166H52.4042V10.2693H66.3228V14.0275L57.8482 26.5162Z" fill="#F5F5F5"/>
<path d="M85.3403 22.2376C85.3403 22.7002 85.3123 23.182 85.2561 23.6831H74.3962C74.4711 24.6853 74.7797 25.4562 75.3223 25.9958C75.8835 26.5162 76.5663 26.7764 77.3708 26.7764C78.5681 26.7764 79.4006 26.256 79.8683 25.2153H84.9755C84.7136 26.2753 84.2366 27.2293 83.5444 28.0773C82.8709 28.9253 82.0197 29.5902 80.9907 30.072C79.9618 30.5538 78.8113 30.7947 77.5392 30.7947C76.0051 30.7947 74.6394 30.4574 73.4421 29.7829C72.2448 29.1083 71.3094 28.1447 70.636 26.892C69.9625 25.6393 69.6257 24.1745 69.6257 22.4978C69.6257 20.8211 69.9531 19.3564 70.6079 18.1036C71.2814 16.8509 72.2168 15.8873 73.4141 15.2127C74.6114 14.5382 75.9864 14.2009 77.5392 14.2009C79.0545 14.2009 80.4015 14.5286 81.58 15.1838C82.7586 15.8391 83.6753 16.7738 84.3301 17.988C85.0036 19.2022 85.3403 20.6187 85.3403 22.2376ZM80.4295 20.9367C80.4295 20.0887 80.1489 19.4142 79.5877 18.9131C79.0264 18.412 78.3249 18.1615 77.483 18.1615C76.6786 18.1615 75.9958 18.4024 75.4345 18.8842C74.892 19.366 74.5553 20.0502 74.4243 20.9367H80.4295Z" fill="#F5F5F5"/>
<path d="M88.0402 22.4689C88.0402 20.8115 88.3395 19.3564 88.9381 18.1036C89.5555 16.8509 90.388 15.8873 91.4356 15.2127C92.4833 14.5382 93.6525 14.2009 94.9433 14.2009C95.9723 14.2009 96.9077 14.4226 97.7495 14.8658C98.6101 15.3091 99.2836 15.9066 99.77 16.6582V9.17075H104.569V30.5634H99.77V28.2507C99.321 29.0216 98.6756 29.6383 97.8337 30.1009C97.0106 30.5634 96.0471 30.7947 94.9433 30.7947C93.6525 30.7947 92.4833 30.4574 91.4356 29.7829C90.388 29.0891 89.5555 28.1158 88.9381 26.8631C88.3395 25.5911 88.0402 24.1264 88.0402 22.4689ZM99.77 22.4978C99.77 21.2644 99.4332 20.2911 98.7597 19.578C98.105 18.8649 97.3005 18.5084 96.3464 18.5084C95.3923 18.5084 94.5785 18.8649 93.9051 19.578C93.2503 20.2718 92.9229 21.2355 92.9229 22.4689C92.9229 23.7024 93.2503 24.6853 93.9051 25.4176C94.5785 26.1307 95.3923 26.4873 96.3464 26.4873C97.3005 26.4873 98.105 26.1307 98.7597 25.4176C99.4332 24.7045 99.77 23.7313 99.77 22.4978Z" fill="#F5F5F5"/>
<path d="M108.208 22.4689C108.208 20.8115 108.508 19.3564 109.106 18.1036C109.724 16.8509 110.556 15.8873 111.604 15.2127C112.652 14.5382 113.821 14.2009 115.112 14.2009C116.141 14.2009 117.076 14.4226 117.918 14.8658C118.778 15.3091 119.452 15.9066 119.938 16.6582V9.17075H124.737V30.5634H119.938V28.2507C119.489 29.0216 118.844 29.6383 118.002 30.1009C117.179 30.5634 116.215 30.7947 115.112 30.7947C113.821 30.7947 112.652 30.4574 111.604 29.7829C110.556 29.0891 109.724 28.1158 109.106 26.8631C108.508 25.5911 108.208 24.1264 108.208 22.4689ZM119.938 22.4978C119.938 21.2644 119.601 20.2911 118.928 19.578C118.273 18.8649 117.469 18.5084 116.515 18.5084C115.561 18.5084 114.747 18.8649 114.073 19.578C113.419 20.2718 113.091 21.2355 113.091 22.4689C113.091 23.7024 113.419 24.6853 114.073 25.4176C114.747 26.1307 115.561 26.4873 116.515 26.4873C117.469 26.4873 118.273 26.1307 118.928 25.4176C119.601 24.7045 119.938 23.7313 119.938 22.4978Z" fill="#F5F5F5"/>
<path d="M142.38 16.1667C142.38 17.9013 141.828 19.2985 140.724 20.3585C139.62 21.4185 137.964 21.9485 135.757 21.9485H131.8V30.5634H129.836V10.356H135.757C137.946 10.356 139.592 10.886 140.696 11.946C141.818 13.006 142.38 14.4129 142.38 16.1667ZM135.757 20.214C138.825 20.214 140.359 18.8649 140.359 16.1667C140.359 14.8176 139.994 13.7962 139.265 13.1024C138.535 12.4086 137.366 12.0616 135.757 12.0616H131.8V20.214H135.757Z" fill="#F5F5F5"/>
<path d="M145.9 22.6424C145.9 21.0235 146.209 19.6069 146.826 18.3927C147.462 17.1593 148.332 16.2149 149.436 15.5596C150.558 14.8851 151.821 14.5478 153.224 14.5478C154.683 14.5478 155.937 14.8947 156.984 15.5886C158.051 16.2824 158.818 17.1689 159.285 18.2482V14.7791H161.25V30.5634H159.285V27.0654C158.799 28.1447 158.023 29.0409 156.956 29.754C155.909 30.4478 154.655 30.7947 153.196 30.7947C151.812 30.7947 150.558 30.4574 149.436 29.7829C148.332 29.1083 147.462 28.1543 146.826 26.9209C146.209 25.6874 145.9 24.2613 145.9 22.6424ZM159.285 22.6713C159.285 21.3993 159.033 20.2815 158.528 19.3178C158.023 18.3542 157.33 17.6122 156.451 17.0918C155.591 16.5715 154.636 16.3113 153.589 16.3113C152.504 16.3113 151.531 16.5618 150.67 17.0629C149.81 17.564 149.127 18.2964 148.622 19.26C148.136 20.2044 147.892 21.3318 147.892 22.6424C147.892 23.9336 148.136 25.0707 148.622 26.0536C149.127 27.0173 149.81 27.7593 150.67 28.2796C151.531 28.7807 152.504 29.0313 153.589 29.0313C154.636 29.0313 155.591 28.7711 156.451 28.2507C157.33 27.7303 158.023 26.9883 158.528 26.0247C159.033 25.0611 159.285 23.9433 159.285 22.6713Z" fill="#F5F5F5"/>
<path d="M179.484 14.7791L170.392 37.9931H168.344L171.318 30.4767L165.033 14.7791H167.193L172.413 28.2507L177.464 14.7791H179.484Z" fill="#F5F5F5"/>
<rect opacity="0.1" width="41.9234" height="41.9234" rx="10.4808" fill="#121212"/>
<rect x="8.34656" y="12.373" width="4.85224" height="21.0868" rx="2.42612" transform="rotate(-90 8.34656 12.373)" fill="#007DE8"/>
<rect width="4.95465" height="29.5012" rx="2.47732" transform="matrix(0.787501 0.616313 -0.629169 0.777269 26.4219 6.55048)" fill="#FAFAFA"/>
<ellipse cx="28.9322" cy="30.3265" rx="2.51033" ry="2.42612" fill="#007DE8"/>
</svg>
